<svg xmlns="http://www.w3.org/2000/svg" xmlns:xlink="http://www.w3.org/1999/xlink" width="40" zoomAndPan="magnify" viewBox="0 0 30 30.000001" height="40" preserveAspectRatio="xMidYMid meet" version="1.0"><defs><clipPath id="22552c2d1e"><path d="M 4.5 1.453125 L 25.550781 1.453125 L 25.550781 27.582031 L 4.5 27.582031 Z M 4.5 1.453125 " clip-rule="nonzero"/></clipPath></defs><g clip-path="url(#22552c2d1e)"><path fill="#000000" d="M 23.15625 27.519531 L 6.898438 27.519531 C 6.585938 27.523438 6.28125 27.464844 5.988281 27.347656 C 5.695312 27.230469 5.4375 27.0625 5.214844 26.84375 C 4.988281 26.621094 4.816406 26.367188 4.691406 26.078125 C 4.566406 25.789062 4.503906 25.488281 4.5 25.175781 L 4.5 12.105469 C 4.503906 11.792969 4.566406 11.492188 4.691406 11.203125 C 4.816406 10.914062 4.988281 10.660156 5.214844 10.4375 C 5.4375 10.21875 5.695312 10.050781 5.988281 9.933594 C 6.28125 9.816406 6.585938 9.757812 6.898438 9.761719 L 11.195312 9.761719 C 11.398438 9.761719 11.570312 9.832031 11.710938 9.972656 C 11.855469 10.117188 11.925781 10.289062 11.925781 10.488281 C 11.925781 10.691406 11.855469 10.863281 11.710938 11.003906 C 11.570312 11.148438 11.398438 11.21875 11.195312 11.21875 L 6.898438 11.21875 C 6.648438 11.210938 6.429688 11.296875 6.246094 11.46875 C 6.0625 11.644531 5.96875 11.855469 5.960938 12.105469 L 5.960938 25.175781 C 5.96875 25.425781 6.0625 25.640625 6.246094 25.8125 C 6.429688 25.984375 6.648438 26.070312 6.898438 26.0625 L 23.15625 26.0625 C 23.410156 26.070312 23.625 25.984375 23.808594 25.8125 C 23.992188 25.640625 24.085938 25.425781 24.09375 25.175781 L 24.09375 12.105469 C 24.085938 11.855469 23.992188 11.644531 23.808594 11.46875 C 23.625 11.296875 23.410156 11.210938 23.15625 11.21875 L 18.542969 11.21875 C 18.339844 11.21875 18.167969 11.148438 18.023438 11.003906 C 17.882812 10.863281 17.8125 10.691406 17.8125 10.488281 C 17.8125 10.289062 17.882812 10.117188 18.023438 9.972656 C 18.167969 9.832031 18.339844 9.761719 18.542969 9.761719 L 23.15625 9.761719 C 23.472656 9.757812 23.773438 9.816406 24.066406 9.933594 C 24.355469 10.050781 24.613281 10.222656 24.839844 10.441406 C 25.0625 10.660156 25.234375 10.914062 25.359375 11.203125 C 25.484375 11.492188 25.546875 11.792969 25.550781 12.105469 L 25.550781 25.175781 C 25.546875 25.488281 25.484375 25.789062 25.359375 26.078125 C 25.234375 26.367188 25.0625 26.621094 24.839844 26.839844 C 24.613281 27.058594 24.355469 27.230469 24.066406 27.347656 C 23.773438 27.464844 23.472656 27.523438 23.15625 27.519531 Z M 15.082031 18.699219 C 14.882812 18.699219 14.710938 18.628906 14.566406 18.488281 C 14.425781 18.34375 14.351562 18.171875 14.351562 17.972656 L 14.351562 4.070312 L 10.785156 7.550781 C 10.640625 7.691406 10.46875 7.761719 10.265625 7.757812 C 10.066406 7.753906 9.894531 7.683594 9.75 7.539062 C 9.609375 7.394531 9.539062 7.222656 9.542969 7.019531 C 9.546875 6.820312 9.617188 6.648438 9.761719 6.507812 L 14.6875 1.707031 C 14.730469 1.664062 14.777344 1.628906 14.832031 1.597656 C 14.949219 1.53125 15.078125 1.496094 15.214844 1.5 C 15.328125 1.5 15.433594 1.527344 15.53125 1.582031 C 15.59375 1.613281 15.648438 1.65625 15.699219 1.703125 L 20.527344 6.511719 C 20.664062 6.65625 20.734375 6.828125 20.730469 7.027344 C 20.730469 7.222656 20.660156 7.394531 20.519531 7.535156 C 20.378906 7.675781 20.207031 7.746094 20.007812 7.75 C 19.808594 7.75 19.636719 7.683594 19.492188 7.542969 L 15.8125 3.875 L 15.8125 17.972656 C 15.8125 18.171875 15.742188 18.34375 15.601562 18.488281 C 15.457031 18.628906 15.285156 18.699219 15.082031 18.699219 Z M 15.082031 18.699219 " fill-opacity="1" fill-rule="nonzero"/></g></svg>